<?xml version="1.0" encoding="UTF-8" standalone="no"?>
<!-- Created with Inkscape (http://www.inkscape.org/) -->

<svg
   version="1.1"
   id="svg2"
   xml:space="preserve"
   width="288"
   height="288"
   viewBox="0 0 288 288"
   sodipodi:docname="svgForAndroid.svg"
   inkscape:version="1.3.2 (091e20ef0f, 2023-11-25)"
   xmlns:inkscape="http://www.inkscape.org/namespaces/inkscape"
   xmlns:sodipodi="http://sodipodi.sourceforge.net/DTD/sodipodi-0.dtd"
   xmlns="http://www.w3.org/2000/svg"
   xmlns:svg="http://www.w3.org/2000/svg"
   xmlns:rdf="http://www.w3.org/1999/02/22-rdf-syntax-ns#"
   xmlns:cc="http://creativecommons.org/ns#"
   xmlns:dc="http://purl.org/dc/elements/1.1/"><sodipodi:namedview
     id="namedview1"
     pagecolor="#ffffff"
     bordercolor="#000000"
     borderopacity="0.25"
     inkscape:showpageshadow="2"
     inkscape:pageopacity="0.0"
     inkscape:pagecheckerboard="0"
     inkscape:deskcolor="#d1d1d1"
     inkscape:zoom="3.0659722"
     inkscape:cx="144"
     inkscape:cy="144"
     inkscape:window-width="1920"
     inkscape:window-height="1131"
     inkscape:window-x="0"
     inkscape:window-y="0"
     inkscape:window-maximized="1"
     inkscape:current-layer="svg2" /><metadata
     id="metadata8"><rdf:RDF><cc:Work
         rdf:about=""><dc:format>image/svg+xml</dc:format><dc:type
           rdf:resource="http://purl.org/dc/dcmitype/StillImage" /><dc:title /></cc:Work></rdf:RDF></metadata><defs
     id="defs6"><filter
       style="color-interpolation-filters:sRGB"
       id="filter1305"
       x="-0.063888984"
       width="1.127778"
       y="-0.23977542"
       height="1.4795508"><feGaussianBlur
         stdDeviation="5.3283398"
         id="feGaussianBlur1307" /></filter><filter
       style="color-interpolation-filters:sRGB"
       id="filter1667"
       x="-8.862572"
       width="18.725885"
       y="-6.135539"
       height="13.271524"><feGaussianBlur
         stdDeviation="4.9122465"
         id="feGaussianBlur1669" /></filter><filter
       style="color-interpolation-filters:sRGB"
       id="filter2193"
       x="-0.90245979"
       width="2.8049206"
       y="-0.90245479"
       height="2.8049091"><feGaussianBlur
         stdDeviation="0.23022348"
         id="feGaussianBlur2195" /></filter></defs><rect
     style="fill:#ffffff;fill-opacity:1;stroke:#a6a6a6;stroke-width:0.0192903;stroke-linejoin:round"
     id="rect1"
     width="287.98071"
     height="287.98071"
     x="0.0097419173"
     y="0.0096387109" /><path
     style="fill:#0c3b59;fill-opacity:1;fill-rule:evenodd;stroke:none;stroke-width:1px;stroke-linecap:butt;stroke-linejoin:miter;stroke-opacity:1"
     d="m 2186.8837,173.19799 -14.6174,-11.87662 0.9136,-18.7285 10.0495,-8.67906 338.255,1.37039 0.6852,35.64829 z"
     id="path1012" /><path
     style="fill:#32844c;fill-opacity:1;fill-rule:evenodd;stroke:none;stroke-width:1px;stroke-linecap:butt;stroke-linejoin:miter;stroke-opacity:1"
     d="m 2197.6812,172.14579 122.3063,-117.509948 29.2876,28.914 30.3751,-29.117973 L 2496.7,171.56241 Z"
     id="path1014" /><path
     d="m 2321.5787,179.01328 a 41.108302,38.218314 4.1259441 0 1 38.8326,-23.95604 41.108302,38.218314 4.1259441 0 1 38.1207,25.66121 l -38.6691,12.56178 z"
     id="path1016"
     style="fill:none;fill-opacity:0.718876;fill-rule:evenodd;stroke:#000000;stroke-width:10;stroke-linecap:round;stroke-linejoin:round;stroke-miterlimit:4;stroke-dasharray:none;stroke-dashoffset:0;stroke-opacity:1" /><path
     style="fill:none;fill-rule:evenodd;stroke:#000000;stroke-width:10;stroke-linecap:round;stroke-linejoin:round;stroke-miterlimit:4;stroke-dasharray:none;stroke-opacity:1"
     d="M 2257.1156,172.1702 2379.6502,54.431869 2496.7,171.5624"
     id="path1018" /><path
     style="fill:none;fill-opacity:0.718876;fill-rule:evenodd;stroke:#000000;stroke-width:10;stroke-linecap:round;stroke-linejoin:round;stroke-miterlimit:4;stroke-dasharray:none;stroke-dashoffset:0;stroke-opacity:1"
     id="path1020"
     d="m 2407.4893,82.825152 a 41.108302,38.218314 4.1259441 0 1 -56.0394,-0.859314 l 28.2004,-27.53396 z" /><path
     d="m 2348.3465,82.580851 a 41.108302,38.218314 4.1259441 0 1 -56.8495,-0.671009 l 28.4905,-27.27397 z"
     id="path1022"
     style="fill:none;fill-opacity:0.718876;fill-rule:evenodd;stroke:#000000;stroke-width:10;stroke-linecap:round;stroke-linejoin:round;stroke-miterlimit:4;stroke-dasharray:none;stroke-dashoffset:0;stroke-opacity:1" /><path
     style="fill:none;fill-opacity:0.718876;fill-rule:evenodd;stroke:#000000;stroke-width:10;stroke-linecap:round;stroke-linejoin:round;stroke-miterlimit:4;stroke-dasharray:none;stroke-dashoffset:0;stroke-opacity:1"
     id="path1024"
     d="m 2458.4687,171.52243 a 38.218314,41.108302 4.1259441 0 1 10.5004,-27.93683 l 27.7309,27.9768 z" /><path
     id="path1026"
     d="m 2197.6812,172.14579 122.3063,-117.509934 29.2876,28.913986"
     style="fill:none;fill-rule:evenodd;stroke:#000000;stroke-width:10;stroke-linecap:round;stroke-linejoin:round;stroke-miterlimit:4;stroke-dasharray:none;stroke-opacity:1" /><rect
     style="fill:#0c3b59;fill-opacity:1;fill-rule:evenodd;stroke:#ff0000;stroke-width:0;stroke-linecap:round;stroke-linejoin:round;stroke-miterlimit:4;stroke-dasharray:none;stroke-dashoffset:0;stroke-opacity:1"
     id="rect1028"
     width="53.475952"
     height="37.68541"
     x="2494.5056"
     y="149.86092"
     transform="matrix(0.9994161,0.03416809,0,1,0,0)"
     ry="13.361181" /><path
     style="fill:#14669d;fill-opacity:1;fill-rule:evenodd;stroke:none;stroke-width:1px;stroke-linecap:butt;stroke-linejoin:miter;stroke-opacity:1"
     d="m 2548.6636,263.18616 -13.247,13.70377 h -88.161 l -23.2965,12.7902 -5.0247,22.83964 4.1112,16.44455 21.926,14.16057 58.0127,1.82716 28.3211,-3.65433 12.3334,-3.65435 4.1112,-10.96303 z"
     id="path1030" /><rect
     style="fill:#14669d;fill-opacity:1;fill-rule:evenodd;stroke:#ff0000;stroke-width:0;stroke-linecap:round;stroke-linejoin:round;stroke-miterlimit:4;stroke-dasharray:none;stroke-dashoffset:0;stroke-opacity:1"
     id="rect1032"
     width="350.40936"
     height="258.983"
     x="2171.7603"
     y="170.93248" /><path
     style="fill:none;fill-rule:evenodd;stroke:#000000;stroke-width:10;stroke-linecap:butt;stroke-linejoin:miter;stroke-miterlimit:4;stroke-dasharray:none;stroke-opacity:1"
     d="m 2522.398,236.46377 c 30.9987,-0.18649 39.2839,39.7418 -0.9136,39.28419 l -67.1485,-0.2284 c -47.0426,-0.22839 -49.8909,68.29052 -0.2284,67.83373 l 66.2349,-1.14199 c 30.7495,1.31543 27.8307,-13.68113 28.3212,-30.14833 v -56.41389"
     id="path1034" /><path
     style="fill:none;fill-rule:evenodd;stroke:#000101;stroke-width:10;stroke-linecap:round;stroke-linejoin:round;stroke-miterlimit:4;stroke-dasharray:none;stroke-opacity:1"
     d="m 2521.256,171.37081 -332.5451,0.91359 c -24.7634,0.42637 -25.3836,-37.47505 -0.9136,-38.37059 l 48.2487,0.3426 m 225.9411,1.25618 59.4973,-0.22839 0.7994,139.09338 m 0.1713,74.34301 -0.2855,83.93567"
     id="path1036" /><path
     style="fill:#000000;fill-opacity:1;fill-rule:evenodd;stroke:#000000;stroke-width:10;stroke-linecap:round;stroke-linejoin:round;stroke-miterlimit:4;stroke-dasharray:none;stroke-dashoffset:0;stroke-opacity:1"
     id="path1038"
     d="m 2455.5903,304.15421 a 6.851891,6.851891 0 0 1 6.8427,6.8178 6.851891,6.851891 0 0 1 -6.7746,6.88553 6.851891,6.851891 0 0 1 -6.928,-6.7311 6.851891,6.851891 0 0 1 6.6874,-6.97028" /><g
     id="g1058"
     transform="matrix(1.3333333,0,0,-1.3333333,2175.0071,185.98819)"
     style="stroke:#ebffff;stroke-opacity:1"><path
       style="opacity:1;fill:none;fill-opacity:1;fill-rule:evenodd;stroke:#ebffff;stroke-width:3.75;stroke-linecap:round;stroke-linejoin:round;stroke-miterlimit:4;stroke-dasharray:none;stroke-dashoffset:0;stroke-opacity:1;filter:url(#filter1667)"
       id="path1040"
       transform="matrix(1,0,0,-1,-58.241076,-257.63111)"
       d="m 56.361948,-177.85785 a 105.61928,108.89532 0 0 1 110.415932,1.40719 105.61928,108.89532 0 0 1 48.85394,102.10109" /><path
       style="fill:none;fill-rule:evenodd;stroke:#ebffff;stroke-width:3.75;stroke-linecap:round;stroke-linejoin:round;stroke-miterlimit:4;stroke-dasharray:none;stroke-opacity:1;filter:url(#filter1667)"
       d="m 64.750374,-183.97328 -0.3426,2.39816 5.82411,5.48151 v 1.37038 l -1.37037,3.42595 -1.71298,0.34259 -5.8241,4.79633 -9.59265,1.37037 -5.82411,4.11114 -2.74076,-0.3426 -3.083347,3.42595 -6.166703,13.36119 -1.027785,7.87968 6.509295,6.50929 -0.342592,3.76854 6.509292,5.48152 h 2.74076 l 1.37038,3.42594 2.56946,-1.54167 2.56945,2.22686 3.25465,-0.68519 4.45373,4.28243 3.59724,0.85649 2.56947,0.51389 2.56946,-1.54167 3.08335,-0.68519 2.91205,-0.5139 4.28243,-1.37037 2.91206,-2.56946 3.76854,0.51389 3.93983,-2.74076 2.91206,-2.56945 -4.28244,-1.19909 v -1.54167 l 8.56487,-7.70838 1.884266,-3.59724 0.51389,1.71297 0.51389,1.71297 3.42595,0.3426 3.42594,-2.39816 4.79633,-2.74076 3.93984,-4.45373 2.39816,-2.39816 2.22686,2.91205 v 3.76854 l -3.76854,3.42595 -8.90746,3.42594 -3.08335,2.56946 0.3426,4.62503 6.68059,-0.34259 1.88427,1.37037 5.13892,-3.59724 3.59724,-1.54167 2.74076,-0.1713 -2.05557,2.56946 -1.19908,2.91205 -5.82411,4.62503 -1.54167,2.22686 -4.28243,-1.37038 1.37037,-1.71297 -1.02778,-3.08335 -3.25465,-0.1713 -4.11113,2.39816 1.37038,1.88427 -2.56947,2.56946 -2.22686,0.3426 -2.398156,2.91205 -0.68519,3.08335 -1.37038,-0.34259 1.54168,-4.79633 3.597236,-5.65281 -2.05557,-1.37038 -1.541666,0.3426 -2.05557,4.11114 -0.85649,4.11113 -4.28243,3.76854 -2.05556,0.85648 -5.13892,1.02779 -3.42595,-0.68519 -3.08335,-2.74076 -2.74076,-1.54167 -3.59724,1.71297 -4.45373,1.02779 -2.22686,2.56945 2.74075,3.25466 1.88427,3.93983 3.59725,-0.34259 4.11113,-2.39817 2.05556,-1.54167 -0.17129,5.824109 3.42595,0.1713 2.91205,0.68518 3.93984,-1.71297 1.71297,-0.1713 2.91205,4.28243 3.93984,-1.88427 -0.51389,4.62503 -2.74076,0.85648 -1.37037,0.8565 2.39816,2.05556 3.93983,2.39816 h 5.824106 l 2.22686,0.85649 2.56947,-4.62503 5.48151,-3.25465 3.93984,-0.34259 1.88427,-1.71298 2.56945,-1.02777 2.56946,-0.1713"
       id="path1042" /><path
       style="fill:none;fill-rule:evenodd;stroke:#ebffff;stroke-width:3.75;stroke-linecap:round;stroke-linejoin:round;stroke-miterlimit:4;stroke-dasharray:none;stroke-opacity:1;filter:url(#filter1667)"
       d="m 125.7322,-183.45939 -2.22686,4.62503 -2.22687,5.13892 -1.02778,3.59724 -0.85649,1.02778 -0.1713,5.99541 1.19908,3.93983 0.51389,8.05098 1.19909,-0.34259 -0.1713,-8.22227 2.39816,-3.93984 -0.34259,-5.48152 1.02778,-7.02319 c 0,0 1.02778,-3.59724 1.71297,-3.93983 0.68519,-0.3426 3.08335,-3.25465 3.08335,-3.25465 l 3.25465,0.68519 3.76854,2.05557 c 0,0 4.11114,4.11113 4.28243,4.79632 0.1713,0.68519 4.28244,5.65281 4.28244,5.65281 l -3.08335,5.48151 -2.22686,2.39817 -2.74077,-1.54168 -1.19907,2.91205 -0.85649,3.93985 -0.51389,5.31021 -1.37038,4.45373 4.96762,-7.53708 c 0,0 0,-2.74076 0.34259,-3.42595 0.3426,-0.68519 3.59725,-3.76854 3.59725,-3.76854 l 4.11113,-3.08335 3.25465,-6.85189 2.22687,-5.99541 1.88427,-2.05557 0.34259,-2.74075"
       id="path1044" /><path
       style="fill:none;fill-rule:evenodd;stroke:#ebffff;stroke-width:3.75;stroke-linecap:round;stroke-linejoin:round;stroke-miterlimit:4;stroke-dasharray:none;stroke-opacity:1;filter:url(#filter1667)"
       d="m 133.95447,-123.33404 -2.05557,-4.11114 1.54168,-3.76854 1.19908,-3.42594 0.1713,-4.79632 1.88427,-3.93984 1.88427,2.05557 0.51389,2.91205 -0.3426,4.45373 -1.02778,3.42595 -1.54167,1.71297 -1.88427,3.59724 z"
       id="path1046" /><path
       style="fill:none;fill-rule:evenodd;stroke:#ebffff;stroke-width:3.75;stroke-linecap:round;stroke-linejoin:round;stroke-miterlimit:4;stroke-dasharray:none;stroke-opacity:1;filter:url(#filter1667)"
       d="m 74.856914,-92.843121 2.56945,0.1713 1.54168,1.88427 -1.19908,0.51388 z"
       id="path1048" /><path
       style="fill:none;fill-rule:evenodd;stroke:#ebffff;stroke-width:3.75;stroke-linecap:round;stroke-linejoin:round;stroke-miterlimit:4;stroke-dasharray:none;stroke-opacity:1;filter:url(#filter1667)"
       d="m 79.995834,-95.241291 2.39816,3.08335 1.02778,3.08336 0.68519,2.22686 1.19908,-4.11113 1.37038,-2.91206 c 0,0 0.51389,-1.71297 -0.1713,-1.71297 -0.68518,0 -3.25465,-0.3426 -3.25465,-0.3426 l -3.42594,-0.68518 z"
       id="path1050" /><path
       style="fill:none;fill-rule:evenodd;stroke:#ebffff;stroke-width:3.75;stroke-linecap:round;stroke-linejoin:round;stroke-miterlimit:4;stroke-dasharray:none;stroke-opacity:1;filter:url(#filter1667)"
       d="m 91.815344,-86.162531 1.54168,2.22686 v -0.68519 z"
       id="path1052" /><path
       style="fill:none;fill-rule:evenodd;stroke:#ebffff;stroke-width:3.75;stroke-linecap:round;stroke-linejoin:round;stroke-miterlimit:4;stroke-dasharray:none;stroke-opacity:1;filter:url(#filter1667)"
       d="m 103.97744,-79.139341 -4.967606,-1.19909 -6.8519,5.48152 -5.65281,1.54168 -2.56945,-2.39816 -9.25006,0.51389 -10.96303,4.62502 -4.11113,1.37038 -1.54168,-1.54168 0.3426,-2.56945 -1.19908,-0.3426 -2.39817,2.22687 0.1713,3.25465 2.74076,0.51389 -0.68519,2.56946"
       id="path1054" /><path
       style="fill:none;fill-rule:evenodd;stroke:#ebffff;stroke-width:3.75;stroke-linecap:round;stroke-linejoin:round;stroke-miterlimit:4;stroke-dasharray:none;stroke-opacity:1;filter:url(#filter1667)"
       d="m 45.051184,-65.435561 -1.54168,-4.28243 -3.425937,1.54168 -4.282433,-7.02319 -3.083355,-1.19909 -0.856485,2.22687 -4.111133,0.85649 -2.912055,-2.05557 -3.59724,-1.54168 -8.736164,0.51389 -4.2824326,-1.54167 -3.425945,-1.19908 -3.76854,-5.9954 -0.34259496,-1.54168 -3.93271044,0.100341"
       id="path1056" /></g><flowRoot
     transform="translate(2619.9232,574.04527)"
     style="font-style:normal;font-weight:normal;font-size:25px;line-height:125%;font-family:Sans;letter-spacing:0px;word-spacing:0px;fill:#f2ffff;fill-opacity:1;stroke:none;stroke-width:1px;stroke-linecap:butt;stroke-linejoin:miter;stroke-opacity:1;filter:url(#filter1305)"
     id="flowRoot1066"
     xml:space="preserve"><flowRegion
       style="fill:#f2ffff;fill-opacity:1"
       id="flowRegion1062"><rect
         style="fill:#f2ffff;fill-opacity:1"
         y="-353.34085"
         x="-394.66891"
         height="222.91487"
         width="471.41013"
         id="rect1060" /></flowRegion><flowPara
       style="font-style:normal;font-variant:normal;font-weight:bold;font-stretch:normal;font-size:53.3333px;font-family:Sans;-inkscape-font-specification:'Sans Bold';fill:#f2ffff;fill-opacity:1"
       id="flowPara1064">Biletujo</flowPara></flowRoot><flowRoot
     xml:space="preserve"
     id="flowRoot1074"
     style="font-style:normal;font-weight:normal;font-size:25px;line-height:125%;font-family:Sans;letter-spacing:0px;word-spacing:0px;fill:#f2ffff;fill-opacity:1;stroke:none;stroke-width:1px;stroke-linecap:butt;stroke-linejoin:miter;stroke-opacity:1"
     transform="translate(2619.9232,574.04527)"><flowRegion
       id="flowRegion1070"
       style="fill:#f2ffff;fill-opacity:1"><rect
         id="rect1068"
         width="471.41013"
         height="222.91487"
         x="-394.66891"
         y="-353.34085"
         style="fill:#f2ffff;fill-opacity:1" /></flowRegion><flowPara
       id="flowPara1072"
       style="font-style:normal;font-variant:normal;font-weight:bold;font-stretch:normal;font-size:53.3333px;font-family:Sans;-inkscape-font-specification:'Sans Bold';fill:#f2ffff;fill-opacity:1">Biletujo</flowPara></flowRoot><g
     transform="matrix(1.3333333,0,0,-1.3333333,2097.3523,529.49632)"
     id="g1094"
     style="stroke:#ebffff;stroke-opacity:1"><path
       d="m 56.361948,-177.85785 a 105.61928,108.89532 0 0 1 110.415932,1.40719 105.61928,108.89532 0 0 1 48.85394,102.10109"
       transform="scale(1,-1)"
       id="path1076"
       style="opacity:1;fill:none;fill-opacity:1;fill-rule:evenodd;stroke:#ebffff;stroke-width:3.75;stroke-linecap:round;stroke-linejoin:round;stroke-miterlimit:4;stroke-dasharray:none;stroke-dashoffset:0;stroke-opacity:1" /><path
       id="path1078"
       d="m 122.99145,73.657832 -0.3426,2.398163 5.82411,5.48151 v 1.370377 l -1.37037,3.425948 -1.71298,0.342592 -5.8241,4.796325 -9.59265,1.370378 -5.82411,4.11114 -2.74076,-0.3426 -3.083347,3.425945 -6.166703,13.36119 -1.027785,7.87968 6.509295,6.50929 -0.342592,3.76854 6.509292,5.48152 h 2.74076 l 1.37038,3.42594 2.56946,-1.54167 2.56945,2.22686 3.25465,-0.68519 4.45373,4.28243 3.59724,0.85649 2.56947,0.51389 2.56946,-1.54167 3.08335,-0.68519 2.91205,-0.5139 4.28243,-1.37037 2.91206,-2.56946 3.76854,0.51389 3.93983,-2.74076 2.91206,-2.56945 -4.28244,-1.19909 v -1.54167 l 8.56487,-7.70838 1.88427,-3.59724 0.51389,1.71297 0.51389,1.71297 3.42595,0.3426 3.42594,-2.39816 4.79633,-2.74076 3.93984,-4.45373 2.39816,-2.39816 2.22686,2.91205 v 3.76854 l -3.76854,3.42595 -8.90746,3.42594 -3.08335,2.56946 0.3426,4.62503 6.68059,-0.34259 1.88427,1.37037 5.13892,-3.59724 3.59724,-1.54167 2.74076,-0.1713 -2.05557,2.56946 -1.19908,2.91205 -5.82411,4.62503 -1.54167,2.22686 -4.28243,-1.37038 1.37037,-1.71297 -1.02778,-3.08335 -3.25465,-0.1713 -4.11113,2.39816 1.37038,1.88427 -2.56947,2.56946 -2.22686,0.3426 -2.39816,2.91205 -0.68519,3.08335 -1.37038,-0.34259 1.54168,-4.79633 3.59724,-5.65281 -2.05557,-1.37038 -1.54167,0.3426 -2.05557,4.11114 -0.85649,4.11113 -4.28243,3.76854 -2.05556,0.85648 -5.13892,1.02779 -3.42595,-0.68519 -3.08335,-2.74076 -2.74076,-1.54167 -3.59724,1.71297 -4.45373,1.02779 -2.22686,2.56945 2.74075,3.25466 1.88427,3.93983 3.59725,-0.34259 4.11113,-2.39817 2.05556,-1.54167 -0.17129,5.82411 3.42595,0.1713 2.91205,0.68518 3.93984,-1.71297 1.71297,-0.1713 2.91205,4.28243 3.93984,-1.88427 -0.51389,4.62503 -2.74076,0.85648 -1.37037,0.8565 2.39816,2.05556 3.93983,2.39816 h 5.82411 l 2.22686,0.85649 2.56947,-4.62503 5.48151,-3.25465 3.93984,-0.34259 1.88427,-1.71298 2.56945,-1.02777 2.56946,-0.1713"
       style="fill:none;fill-rule:evenodd;stroke:#ebffff;stroke-width:3.75;stroke-linecap:round;stroke-linejoin:round;stroke-miterlimit:4;stroke-dasharray:none;stroke-opacity:1" /><path
       id="path1080"
       d="m 183.97328,74.171724 -2.22686,4.625026 -2.22687,5.138917 -1.02778,3.597248 -0.85649,1.027777 -0.1713,5.995411 1.19908,3.939832 0.51389,8.050975 1.19909,-0.34259 -0.1713,-8.22227 2.39816,-3.93984 -0.34259,-5.481518 1.02778,-7.023187 c 0,0 1.02778,-3.59724 1.71297,-3.939833 0.68519,-0.3426 3.08335,-3.254648 3.08335,-3.254648 l 3.25465,0.685186 3.76854,2.05557 c 0,0 4.11114,4.111132 4.28243,4.796325 0.1713,0.685185 4.28244,5.65281 4.28244,5.65281 l -3.08335,5.48151 -2.22686,2.398163 -2.74077,-1.541678 -1.19907,2.912055 -0.85649,3.939845 -0.51389,5.31021 -1.37038,4.45373 4.96762,-7.53708 c 0,0 0,-2.74076 0.34259,-3.42595 0.3426,-0.685185 3.59725,-3.76854 3.59725,-3.76854 l 4.11113,-3.083348 3.25465,-6.851895 2.22687,-5.995402 1.88427,-2.05557 0.34259,-2.740755"
       style="fill:none;fill-rule:evenodd;stroke:#ebffff;stroke-width:3.75;stroke-linecap:round;stroke-linejoin:round;stroke-miterlimit:4;stroke-dasharray:none;stroke-opacity:1" /><path
       id="path1082"
       d="m 192.19555,134.29707 -2.05557,-4.11114 1.54168,-3.76854 1.19908,-3.42594 0.1713,-4.79632 1.88427,-3.93984 1.88427,2.05557 0.51389,2.91205 -0.3426,4.45373 -1.02778,3.42595 -1.54167,1.71297 -1.88427,3.59724 z"
       style="fill:none;fill-rule:evenodd;stroke:#ebffff;stroke-width:3.75;stroke-linecap:round;stroke-linejoin:round;stroke-miterlimit:4;stroke-dasharray:none;stroke-opacity:1" /><path
       id="path1084"
       d="m 133.09799,164.78799 2.56945,0.1713 1.54168,1.88427 -1.19908,0.51388 z"
       style="fill:none;fill-rule:evenodd;stroke:#ebffff;stroke-width:3.75;stroke-linecap:round;stroke-linejoin:round;stroke-miterlimit:4;stroke-dasharray:none;stroke-opacity:1" /><path
       id="path1086"
       d="m 138.23691,162.38982 2.39816,3.08335 1.02778,3.08336 0.68519,2.22686 1.19908,-4.11113 1.37038,-2.91206 c 0,0 0.51389,-1.71297 -0.1713,-1.71297 -0.68518,0 -3.25465,-0.3426 -3.25465,-0.3426 l -3.42594,-0.68518 z"
       style="fill:none;fill-rule:evenodd;stroke:#ebffff;stroke-width:3.75;stroke-linecap:round;stroke-linejoin:round;stroke-miterlimit:4;stroke-dasharray:none;stroke-opacity:1" /><path
       id="path1088"
       d="m 150.05642,171.46858 1.54168,2.22686 v -0.68519 z"
       style="fill:none;fill-rule:evenodd;stroke:#ebffff;stroke-width:3.75;stroke-linecap:round;stroke-linejoin:round;stroke-miterlimit:4;stroke-dasharray:none;stroke-opacity:1" /><path
       id="path1090"
       d="m 162.21852,178.49177 -4.96761,-1.19909 -6.8519,5.48152 -5.65281,1.54168 -2.56945,-2.39816 -9.25006,0.51389 -10.96303,4.62502 -4.11113,1.37038 -1.54168,-1.54168 0.3426,-2.56945 -1.19908,-0.3426 -2.39817,2.22687 0.1713,3.25465 2.74076,0.51389 -0.68519,2.56946"
       style="fill:none;fill-rule:evenodd;stroke:#ebffff;stroke-width:3.75;stroke-linecap:round;stroke-linejoin:round;stroke-miterlimit:4;stroke-dasharray:none;stroke-opacity:1" /><path
       id="path1092"
       d="m 103.29226,192.19555 -1.54168,-4.28243 -3.425937,1.54168 -4.282433,-7.02319 -3.083355,-1.19909 -0.856485,2.22687 -4.111133,0.85649 -2.912055,-2.05557 -3.59724,-1.54168 -8.736164,0.51389 -4.282433,-1.54167 -3.425945,-1.19908 -3.76854,-5.9954 -0.342595,-1.54168 -3.932706,0.10034"
       style="fill:none;fill-rule:evenodd;stroke:#ebffff;stroke-width:3.75;stroke-linecap:round;stroke-linejoin:round;stroke-miterlimit:4;stroke-dasharray:none;stroke-opacity:1" /></g><path
     style="fill:none;fill-rule:evenodd;stroke:#000101;stroke-width:10;stroke-linecap:round;stroke-linejoin:miter;stroke-miterlimit:4;stroke-dasharray:none;stroke-opacity:1"
     d="m 2522.1696,432.65626 -327.0636,0.91359 c -11.9493,-0.47324 -24.4697,-4.03586 -24.8952,-23.75323 l -0.6852,-258.54469"
     id="path1096" /><path
     d="m 270.17234,-161.38177 a 0.51389182,0.51389182 0 0 1 0.51321,0.51134 0.51389182,0.51389182 0 0 1 -0.5081,0.51642 0.51389182,0.51389182 0 0 1 -0.5196,-0.50484 0.51389182,0.51389182 0 0 1 0.50155,-0.52277"
     transform="matrix(3.3177599,0,0,3.3177599,1562.8152,842.5601)"
     id="path1098"
     style="fill:#ffffff;fill-opacity:1;fill-rule:evenodd;stroke:#cbcbcb;stroke-width:0.75;stroke-linecap:round;stroke-linejoin:round;stroke-miterlimit:4;stroke-dasharray:none;stroke-dashoffset:0;stroke-opacity:1;filter:url(#filter2193)" /><path
     id="path967"
     d="m 2103.7461,-273.15434 -14.6174,-11.87661 0.9136,-18.7285 10.0494,-8.67906 338.2551,1.37039 0.6852,35.64829 z"
     style="fill:#633f3f;fill-opacity:1;fill-rule:evenodd;stroke:none;stroke-width:1px;stroke-linecap:butt;stroke-linejoin:miter;stroke-opacity:1" /><path
     id="path969"
     d="m 2114.5436,-274.20654 122.3062,-117.50994 29.2877,28.914 30.3751,-29.11797 117.0498,117.13054 z"
     style="fill:#32844c;fill-opacity:1;fill-rule:evenodd;stroke:none;stroke-width:1px;stroke-linecap:butt;stroke-linejoin:miter;stroke-opacity:1" /><path
     style="fill:none;fill-opacity:0.718876;fill-rule:evenodd;stroke:#000000;stroke-width:10;stroke-linecap:round;stroke-linejoin:round;stroke-miterlimit:4;stroke-dasharray:none;stroke-dashoffset:0;stroke-opacity:1"
     id="path971"
     d="m 2238.4411,-267.33907 a 41.108302,38.218314 4.1259441 0 1 38.8325,-23.95603 41.108302,38.218314 4.1259441 0 1 38.1207,25.66121 l -38.669,12.56177 z" /><path
     id="path973"
     d="m 2173.978,-274.18212 122.5346,-117.73833 117.0498,117.13053"
     style="fill:none;fill-rule:evenodd;stroke:#000000;stroke-width:10;stroke-linecap:round;stroke-linejoin:round;stroke-miterlimit:4;stroke-dasharray:none;stroke-opacity:1" /><path
     d="m 2324.3517,-363.52719 a 41.108302,38.218314 4.1259441 0 1 -56.0395,-0.85932 l 28.2004,-27.53396 z"
     id="path975"
     style="fill:none;fill-opacity:0.718876;fill-rule:evenodd;stroke:#000000;stroke-width:10;stroke-linecap:round;stroke-linejoin:round;stroke-miterlimit:4;stroke-dasharray:none;stroke-dashoffset:0;stroke-opacity:1" /><path
     style="fill:none;fill-opacity:0.718876;fill-rule:evenodd;stroke:#000000;stroke-width:10;stroke-linecap:round;stroke-linejoin:round;stroke-miterlimit:4;stroke-dasharray:none;stroke-dashoffset:0;stroke-opacity:1"
     id="path977"
     d="m 2265.2089,-363.77148 a 41.108302,38.218314 4.1259441 0 1 -56.8496,-0.67101 l 28.4905,-27.27398 z" /><path
     d="m 2375.3311,-274.82988 a 38.218314,41.108302 4.1259441 0 1 10.5003,-27.93683 l 27.731,27.97681 z"
     id="path979"
     style="fill:none;fill-opacity:0.718876;fill-rule:evenodd;stroke:#000000;stroke-width:10;stroke-linecap:round;stroke-linejoin:round;stroke-miterlimit:4;stroke-dasharray:none;stroke-dashoffset:0;stroke-opacity:1" /><path
     style="fill:none;fill-rule:evenodd;stroke:#000000;stroke-width:10;stroke-linecap:round;stroke-linejoin:round;stroke-miterlimit:4;stroke-dasharray:none;stroke-opacity:1"
     d="m 2114.5436,-274.20654 122.3062,-117.50993 29.2877,28.91399"
     id="path981" /><rect
     ry="13.361181"
     transform="matrix(0.9994161,0.03416809,0,1,0,0)"
     y="-293.64908"
     x="2411.3193"
     height="37.68541"
     width="53.475952"
     id="rect983"
     style="fill:#633f3f;fill-opacity:1;fill-rule:evenodd;stroke:#ff0000;stroke-width:0;stroke-linecap:round;stroke-linejoin:round;stroke-miterlimit:4;stroke-dasharray:none;stroke-dashoffset:0;stroke-opacity:1" /><path
     id="path985"
     d="m 2465.5259,-183.16616 -13.247,13.70377 h -88.161 l -23.2964,12.7902 -5.0247,22.83964 4.1111,16.44454 21.9261,14.16058 58.0126,1.82716 28.3212,-3.65434 12.3334,-3.65434 4.1111,-10.96303 z"
     style="fill:#865555;fill-opacity:1;fill-rule:evenodd;stroke:none;stroke-width:1px;stroke-linecap:butt;stroke-linejoin:miter;stroke-opacity:1" /><rect
     y="-275.41983"
     x="2088.6226"
     height="258.983"
     width="350.40936"
     id="rect987"
     style="fill:#865555;fill-opacity:1;fill-rule:evenodd;stroke:#ff0000;stroke-width:0;stroke-linecap:round;stroke-linejoin:round;stroke-miterlimit:4;stroke-dasharray:none;stroke-dashoffset:0;stroke-opacity:1" /><path
     id="path989"
     d="m 2439.2604,-209.88855 c 30.9987,-0.18649 39.2838,39.7418 -0.9136,39.28419 l -67.1486,-0.2284 c -47.0425,-0.22839 -49.8908,68.29051 -0.2284,67.83373 l 66.235,-1.14199 c 30.7495,1.31543 27.8307,-13.68113 28.3211,-30.14833 v -56.41389"
     style="fill:none;fill-rule:evenodd;stroke:#000000;stroke-width:10;stroke-linecap:butt;stroke-linejoin:miter;stroke-miterlimit:4;stroke-dasharray:none;stroke-opacity:1" /><path
     id="path991"
     d="m 2438.1184,-274.98151 -332.5452,0.91359 c -24.7633,0.42637 -25.3836,-37.47505 -0.9135,-38.37059 l 48.2487,0.3426 m 225.9411,1.25618 59.4973,-0.22839 0.7994,139.09338 m 0.1712,74.343013 -0.2854,83.935669"
     style="fill:none;fill-rule:evenodd;stroke:#000101;stroke-width:10;stroke-linecap:round;stroke-linejoin:round;stroke-miterlimit:4;stroke-dasharray:none;stroke-opacity:1" /><path
     d="m 2372.4526,-142.19811 a 6.851891,6.851891 0 0 1 6.8428,6.8178 6.851891,6.851891 0 0 1 -6.7746,6.88554 6.851891,6.851891 0 0 1 -6.9281,-6.73112 6.851891,6.851891 0 0 1 6.6874,-6.97028"
     id="path993"
     style="fill:#000000;fill-opacity:1;fill-rule:evenodd;stroke:#000000;stroke-width:10;stroke-linecap:round;stroke-linejoin:round;stroke-miterlimit:4;stroke-dasharray:none;stroke-dashoffset:0;stroke-opacity:1" /><g
     transform="matrix(1.3333333,0,0,-1.3333333,2091.8695,-260.36414)"
     id="g1013"><path
       d="m 56.361948,-177.85785 a 105.61928,108.89532 0 0 1 110.415932,1.40719 105.61928,108.89532 0 0 1 48.85394,102.10109"
       transform="matrix(1,0,0,-1,-58.241076,-257.63111)"
       id="path995"
       style="opacity:1;fill:none;fill-opacity:1;fill-rule:evenodd;stroke:#380005;stroke-width:3.75;stroke-linecap:round;stroke-linejoin:round;stroke-miterlimit:4;stroke-dasharray:none;stroke-dashoffset:0;stroke-opacity:1;filter:url(#filter1667)" /><path
       id="path997"
       d="m 64.750374,-183.97328 -0.3426,2.39816 5.82411,5.48151 v 1.37038 l -1.37037,3.42595 -1.71298,0.34259 -5.8241,4.79633 -9.59265,1.37037 -5.82411,4.11114 -2.74076,-0.3426 -3.083347,3.42595 -6.166703,13.36119 -1.027785,7.87968 6.509295,6.50929 -0.342592,3.76854 6.509292,5.48152 h 2.74076 l 1.37038,3.42594 2.56946,-1.54167 2.56945,2.22686 3.25465,-0.68519 4.45373,4.28243 3.59724,0.85649 2.56947,0.51389 2.56946,-1.54167 3.08335,-0.68519 2.91205,-0.5139 4.28243,-1.37037 2.91206,-2.56946 3.76854,0.51389 3.93983,-2.74076 2.91206,-2.56945 -4.28244,-1.19909 v -1.54167 l 8.56487,-7.70838 1.884266,-3.59724 0.51389,1.71297 0.51389,1.71297 3.42595,0.3426 3.42594,-2.39816 4.79633,-2.74076 3.93984,-4.45373 2.39816,-2.39816 2.22686,2.91205 v 3.76854 l -3.76854,3.42595 -8.90746,3.42594 -3.08335,2.56946 0.3426,4.62503 6.68059,-0.34259 1.88427,1.37037 5.13892,-3.59724 3.59724,-1.54167 2.74076,-0.1713 -2.05557,2.56946 -1.19908,2.91205 -5.82411,4.62503 -1.54167,2.22686 -4.28243,-1.37038 1.37037,-1.71297 -1.02778,-3.08335 -3.25465,-0.1713 -4.11113,2.39816 1.37038,1.88427 -2.56947,2.56946 -2.22686,0.3426 -2.398156,2.91205 -0.68519,3.08335 -1.37038,-0.34259 1.54168,-4.79633 3.597236,-5.65281 -2.05557,-1.37038 -1.541666,0.3426 -2.05557,4.11114 -0.85649,4.11113 -4.28243,3.76854 -2.05556,0.85648 -5.13892,1.02779 -3.42595,-0.68519 -3.08335,-2.74076 -2.74076,-1.54167 -3.59724,1.71297 -4.45373,1.02779 -2.22686,2.56945 2.74075,3.25466 1.88427,3.93983 3.59725,-0.34259 4.11113,-2.39817 2.05556,-1.54167 -0.17129,5.824109 3.42595,0.1713 2.91205,0.68518 3.93984,-1.71297 1.71297,-0.1713 2.91205,4.28243 3.93984,-1.88427 -0.51389,4.62503 -2.74076,0.85648 -1.37037,0.8565 2.39816,2.05556 3.93983,2.39816 h 5.824106 l 2.22686,0.85649 2.56947,-4.62503 5.48151,-3.25465 3.93984,-0.34259 1.88427,-1.71298 2.56945,-1.02777 2.56946,-0.1713"
       style="fill:none;fill-rule:evenodd;stroke:#380005;stroke-width:3.75;stroke-linecap:round;stroke-linejoin:round;stroke-miterlimit:4;stroke-dasharray:none;stroke-opacity:1;filter:url(#filter1667)" /><path
       id="path999"
       d="m 125.7322,-183.45939 -2.22686,4.62503 -2.22687,5.13892 -1.02778,3.59724 -0.85649,1.02778 -0.1713,5.99541 1.19908,3.93983 0.51389,8.05098 1.19909,-0.34259 -0.1713,-8.22227 2.39816,-3.93984 -0.34259,-5.48152 1.02778,-7.02319 c 0,0 1.02778,-3.59724 1.71297,-3.93983 0.68519,-0.3426 3.08335,-3.25465 3.08335,-3.25465 l 3.25465,0.68519 3.76854,2.05557 c 0,0 4.11114,4.11113 4.28243,4.79632 0.1713,0.68519 4.28244,5.65281 4.28244,5.65281 l -3.08335,5.48151 -2.22686,2.39817 -2.74077,-1.54168 -1.19907,2.91205 -0.85649,3.93985 -0.51389,5.31021 -1.37038,4.45373 4.96762,-7.53708 c 0,0 0,-2.74076 0.34259,-3.42595 0.3426,-0.68519 3.59725,-3.76854 3.59725,-3.76854 l 4.11113,-3.08335 3.25465,-6.85189 2.22687,-5.99541 1.88427,-2.05557 0.34259,-2.74075"
       style="fill:none;fill-rule:evenodd;stroke:#380005;stroke-width:3.75;stroke-linecap:round;stroke-linejoin:round;stroke-miterlimit:4;stroke-dasharray:none;stroke-opacity:1;filter:url(#filter1667)" /><path
       id="path1001"
       d="m 133.95447,-123.33404 -2.05557,-4.11114 1.54168,-3.76854 1.19908,-3.42594 0.1713,-4.79632 1.88427,-3.93984 1.88427,2.05557 0.51389,2.91205 -0.3426,4.45373 -1.02778,3.42595 -1.54167,1.71297 -1.88427,3.59724 z"
       style="fill:none;fill-rule:evenodd;stroke:#380005;stroke-width:3.75;stroke-linecap:round;stroke-linejoin:round;stroke-miterlimit:4;stroke-dasharray:none;stroke-opacity:1;filter:url(#filter1667)" /><path
       id="path1003"
       d="m 74.856914,-92.843121 2.56945,0.1713 1.54168,1.88427 -1.19908,0.51388 z"
       style="fill:none;fill-rule:evenodd;stroke:#380005;stroke-width:3.75;stroke-linecap:round;stroke-linejoin:round;stroke-miterlimit:4;stroke-dasharray:none;stroke-opacity:1;filter:url(#filter1667)" /><path
       id="path1005"
       d="m 79.995834,-95.241291 2.39816,3.08335 1.02778,3.08336 0.68519,2.22686 1.19908,-4.11113 1.37038,-2.91206 c 0,0 0.51389,-1.71297 -0.1713,-1.71297 -0.68518,0 -3.25465,-0.3426 -3.25465,-0.3426 l -3.42594,-0.68518 z"
       style="fill:none;fill-rule:evenodd;stroke:#380005;stroke-width:3.75;stroke-linecap:round;stroke-linejoin:round;stroke-miterlimit:4;stroke-dasharray:none;stroke-opacity:1;filter:url(#filter1667)" /><path
       id="path1007"
       d="m 91.815344,-86.162531 1.54168,2.22686 v -0.68519 z"
       style="fill:none;fill-rule:evenodd;stroke:#380005;stroke-width:3.75;stroke-linecap:round;stroke-linejoin:round;stroke-miterlimit:4;stroke-dasharray:none;stroke-opacity:1;filter:url(#filter1667)" /><path
       id="path1009"
       d="m 103.97744,-79.139341 -4.967606,-1.19909 -6.8519,5.48152 -5.65281,1.54168 -2.56945,-2.39816 -9.25006,0.51389 -10.96303,4.62502 -4.11113,1.37038 -1.54168,-1.54168 0.3426,-2.56945 -1.19908,-0.3426 -2.39817,2.22687 0.1713,3.25465 2.74076,0.51389 -0.68519,2.56946"
       style="fill:none;fill-rule:evenodd;stroke:#380005;stroke-width:3.75;stroke-linecap:round;stroke-linejoin:round;stroke-miterlimit:4;stroke-dasharray:none;stroke-opacity:1;filter:url(#filter1667)" /><path
       id="path1011"
       d="m 45.051184,-65.435561 -1.54168,-4.28243 -3.425937,1.54168 -4.282433,-7.02319 -3.083355,-1.19909 -0.856485,2.22687 -4.111133,0.85649 -2.912055,-2.05557 -3.59724,-1.54168 -8.736164,0.51389 -4.2824326,-1.54167 -3.425945,-1.19908 -3.76854,-5.9954 -0.34259496,-1.54168 -3.93271044,0.100341"
       style="fill:none;fill-rule:evenodd;stroke:#380005;stroke-width:3.75;stroke-linecap:round;stroke-linejoin:round;stroke-miterlimit:4;stroke-dasharray:none;stroke-opacity:1;filter:url(#filter1667)" /></g><flowRoot
     xml:space="preserve"
     id="flowRoot1021"
     style="font-style:normal;font-weight:normal;font-size:25px;line-height:125%;font-family:Sans;letter-spacing:0px;word-spacing:0px;fill:#380005;fill-opacity:1;stroke:none;stroke-width:1px;stroke-linecap:butt;stroke-linejoin:miter;stroke-opacity:1;filter:url(#filter1305)"
     transform="translate(2536.7856,127.69295)"><flowRegion
       id="flowRegion1017"
       style="fill:#380005;fill-opacity:1"><rect
         id="rect1015"
         width="471.41013"
         height="222.91487"
         x="-394.66891"
         y="-353.34085"
         style="fill:#380005;fill-opacity:1" /></flowRegion><flowPara
       id="flowPara1019"
       style="font-style:normal;font-variant:normal;font-weight:bold;font-stretch:normal;font-size:53.3333px;font-family:Sans;-inkscape-font-specification:'Sans Bold';fill:#380005;fill-opacity:1">Biletujo</flowPara></flowRoot><flowRoot
     transform="translate(2536.7856,127.69295)"
     style="font-style:normal;font-weight:normal;font-size:25px;line-height:125%;font-family:Sans;letter-spacing:0px;word-spacing:0px;fill:#380005;fill-opacity:1;stroke:none;stroke-width:1px;stroke-linecap:butt;stroke-linejoin:miter;stroke-opacity:1"
     id="flowRoot1029"
     xml:space="preserve"><flowRegion
       style="fill:#380005;fill-opacity:1"
       id="flowRegion1025"><rect
         style="fill:#380005;fill-opacity:1"
         y="-353.34085"
         x="-394.66891"
         height="222.91487"
         width="471.41013"
         id="rect1023" /></flowRegion><flowPara
       style="font-style:normal;font-variant:normal;font-weight:bold;font-stretch:normal;font-size:53.3333px;font-family:Sans;-inkscape-font-specification:'Sans Bold';fill:#380005;fill-opacity:1"
       id="flowPara1027">Biletujo</flowPara></flowRoot><g
     id="g1049"
     transform="matrix(1.3333333,0,0,-1.3333333,2014.2147,83.144002)"><path
       style="opacity:1;fill:none;fill-opacity:1;fill-rule:evenodd;stroke:#380005;stroke-width:3.75;stroke-linecap:round;stroke-linejoin:round;stroke-miterlimit:4;stroke-dasharray:none;stroke-dashoffset:0;stroke-opacity:1"
       id="path1031"
       transform="scale(1,-1)"
       d="m 56.361948,-177.85785 a 105.61928,108.89532 0 0 1 110.415932,1.40719 105.61928,108.89532 0 0 1 48.85394,102.10109" /><path
       style="fill:none;fill-rule:evenodd;stroke:#380005;stroke-width:3.75;stroke-linecap:round;stroke-linejoin:round;stroke-miterlimit:4;stroke-dasharray:none;stroke-opacity:1"
       d="m 122.99145,73.657832 -0.3426,2.398163 5.82411,5.48151 v 1.370377 l -1.37037,3.425948 -1.71298,0.342592 -5.8241,4.796325 -9.59265,1.370378 -5.82411,4.11114 -2.74076,-0.3426 -3.083347,3.425945 -6.166703,13.36119 -1.027785,7.87968 6.509295,6.50929 -0.342592,3.76854 6.509292,5.48152 h 2.74076 l 1.37038,3.42594 2.56946,-1.54167 2.56945,2.22686 3.25465,-0.68519 4.45373,4.28243 3.59724,0.85649 2.56947,0.51389 2.56946,-1.54167 3.08335,-0.68519 2.91205,-0.5139 4.28243,-1.37037 2.91206,-2.56946 3.76854,0.51389 3.93983,-2.74076 2.91206,-2.56945 -4.28244,-1.19909 v -1.54167 l 8.56487,-7.70838 1.88427,-3.59724 0.51389,1.71297 0.51389,1.71297 3.42595,0.3426 3.42594,-2.39816 4.79633,-2.74076 3.93984,-4.45373 2.39816,-2.39816 2.22686,2.91205 v 3.76854 l -3.76854,3.42595 -8.90746,3.42594 -3.08335,2.56946 0.3426,4.62503 6.68059,-0.34259 1.88427,1.37037 5.13892,-3.59724 3.59724,-1.54167 2.74076,-0.1713 -2.05557,2.56946 -1.19908,2.91205 -5.82411,4.62503 -1.54167,2.22686 -4.28243,-1.37038 1.37037,-1.71297 -1.02778,-3.08335 -3.25465,-0.1713 -4.11113,2.39816 1.37038,1.88427 -2.56947,2.56946 -2.22686,0.3426 -2.39816,2.91205 -0.68519,3.08335 -1.37038,-0.34259 1.54168,-4.79633 3.59724,-5.65281 -2.05557,-1.37038 -1.54167,0.3426 -2.05557,4.11114 -0.85649,4.11113 -4.28243,3.76854 -2.05556,0.85648 -5.13892,1.02779 -3.42595,-0.68519 -3.08335,-2.74076 -2.74076,-1.54167 -3.59724,1.71297 -4.45373,1.02779 -2.22686,2.56945 2.74075,3.25466 1.88427,3.93983 3.59725,-0.34259 4.11113,-2.39817 2.05556,-1.54167 -0.17129,5.82411 3.42595,0.1713 2.91205,0.68518 3.93984,-1.71297 1.71297,-0.1713 2.91205,4.28243 3.93984,-1.88427 -0.51389,4.62503 -2.74076,0.85648 -1.37037,0.8565 2.39816,2.05556 3.93983,2.39816 h 5.82411 l 2.22686,0.85649 2.56947,-4.62503 5.48151,-3.25465 3.93984,-0.34259 1.88427,-1.71298 2.56945,-1.02777 2.56946,-0.1713"
       id="path1033" /><path
       style="fill:none;fill-rule:evenodd;stroke:#380005;stroke-width:3.75;stroke-linecap:round;stroke-linejoin:round;stroke-miterlimit:4;stroke-dasharray:none;stroke-opacity:1"
       d="m 183.97328,74.171724 -2.22686,4.625026 -2.22687,5.138917 -1.02778,3.597248 -0.85649,1.027777 -0.1713,5.995411 1.19908,3.939832 0.51389,8.050975 1.19909,-0.34259 -0.1713,-8.22227 2.39816,-3.93984 -0.34259,-5.481518 1.02778,-7.023187 c 0,0 1.02778,-3.59724 1.71297,-3.939833 0.68519,-0.3426 3.08335,-3.254648 3.08335,-3.254648 l 3.25465,0.685186 3.76854,2.05557 c 0,0 4.11114,4.111132 4.28243,4.796325 0.1713,0.685185 4.28244,5.65281 4.28244,5.65281 l -3.08335,5.48151 -2.22686,2.398163 -2.74077,-1.541678 -1.19907,2.912055 -0.85649,3.939845 -0.51389,5.31021 -1.37038,4.45373 4.96762,-7.53708 c 0,0 0,-2.74076 0.34259,-3.42595 0.3426,-0.685185 3.59725,-3.76854 3.59725,-3.76854 l 4.11113,-3.083348 3.25465,-6.851895 2.22687,-5.995402 1.88427,-2.05557 0.34259,-2.740755"
       id="path1035" /><path
       style="fill:none;fill-rule:evenodd;stroke:#380005;stroke-width:3.75;stroke-linecap:round;stroke-linejoin:round;stroke-miterlimit:4;stroke-dasharray:none;stroke-opacity:1"
       d="m 192.19555,134.29707 -2.05557,-4.11114 1.54168,-3.76854 1.19908,-3.42594 0.1713,-4.79632 1.88427,-3.93984 1.88427,2.05557 0.51389,2.91205 -0.3426,4.45373 -1.02778,3.42595 -1.54167,1.71297 -1.88427,3.59724 z"
       id="path1037" /><path
       style="fill:none;fill-rule:evenodd;stroke:#380005;stroke-width:3.75;stroke-linecap:round;stroke-linejoin:round;stroke-miterlimit:4;stroke-dasharray:none;stroke-opacity:1"
       d="m 133.09799,164.78799 2.56945,0.1713 1.54168,1.88427 -1.19908,0.51388 z"
       id="path1039" /><path
       style="fill:none;fill-rule:evenodd;stroke:#380005;stroke-width:3.75;stroke-linecap:round;stroke-linejoin:round;stroke-miterlimit:4;stroke-dasharray:none;stroke-opacity:1"
       d="m 138.23691,162.38982 2.39816,3.08335 1.02778,3.08336 0.68519,2.22686 1.19908,-4.11113 1.37038,-2.91206 c 0,0 0.51389,-1.71297 -0.1713,-1.71297 -0.68518,0 -3.25465,-0.3426 -3.25465,-0.3426 l -3.42594,-0.68518 z"
       id="path1041" /><path
       style="fill:none;fill-rule:evenodd;stroke:#380005;stroke-width:3.75;stroke-linecap:round;stroke-linejoin:round;stroke-miterlimit:4;stroke-dasharray:none;stroke-opacity:1"
       d="m 150.05642,171.46858 1.54168,2.22686 v -0.68519 z"
       id="path1043" /><path
       style="fill:none;fill-rule:evenodd;stroke:#380005;stroke-width:3.75;stroke-linecap:round;stroke-linejoin:round;stroke-miterlimit:4;stroke-dasharray:none;stroke-opacity:1"
       d="m 162.21852,178.49177 -4.96761,-1.19909 -6.8519,5.48152 -5.65281,1.54168 -2.56945,-2.39816 -9.25006,0.51389 -10.96303,4.62502 -4.11113,1.37038 -1.54168,-1.54168 0.3426,-2.56945 -1.19908,-0.3426 -2.39817,2.22687 0.1713,3.25465 2.74076,0.51389 -0.68519,2.56946"
       id="path1045" /><path
       style="fill:none;fill-rule:evenodd;stroke:#380005;stroke-width:3.75;stroke-linecap:round;stroke-linejoin:round;stroke-miterlimit:4;stroke-dasharray:none;stroke-opacity:1"
       d="m 103.29226,192.19555 -1.54168,-4.28243 -3.425937,1.54168 -4.282433,-7.02319 -3.083355,-1.19909 -0.856485,2.22687 -4.111133,0.85649 -2.912055,-2.05557 -3.59724,-1.54168 -8.736164,0.51389 -4.282433,-1.54167 -3.425945,-1.19908 -3.76854,-5.9954 -0.342595,-1.54168 -3.932706,0.10034"
       id="path1047" /></g><path
     id="path1051"
     d="m 2439.032,-13.696058 -327.0637,0.91358 c -11.9492,-0.473238 -24.4696,-4.035847 -24.8952,-23.75322 l -0.6851,-258.544692"
     style="fill:none;fill-rule:evenodd;stroke:#000101;stroke-width:10;stroke-linecap:round;stroke-linejoin:miter;stroke-miterlimit:4;stroke-dasharray:none;stroke-opacity:1" /><path
     style="fill:#ffffff;fill-opacity:1;fill-rule:evenodd;stroke:#cbcbcb;stroke-width:0.75;stroke-linecap:round;stroke-linejoin:round;stroke-miterlimit:4;stroke-dasharray:none;stroke-dashoffset:0;stroke-opacity:1;filter:url(#filter2193)"
     id="path1053"
     transform="matrix(3.3177599,0,0,3.3177599,1479.6776,396.20778)"
     d="m 270.17234,-161.38177 a 0.51389182,0.51389182 0 0 1 0.51321,0.51134 0.51389182,0.51389182 0 0 1 -0.5081,0.51642 0.51389182,0.51389182 0 0 1 -0.5196,-0.50484 0.51389182,0.51389182 0 0 1 0.50155,-0.52277" /><rect
     ry="0"
     y="-1633.1917"
     x="-3261.8079"
     height="1024"
     width="1024"
     id="rect941"
     style="fill:#ffffff;fill-opacity:1;fill-rule:evenodd;stroke:none;stroke-width:1.47576;stroke-linecap:round;stroke-linejoin:miter;stroke-miterlimit:4;stroke-dasharray:none;stroke-dashoffset:0;stroke-opacity:1" /><g
     id="g939"
     transform="matrix(2.3932518,0,0,-2.3932518,1477.135,4261.8043)"><rect
       ry="11.148339"
       transform="matrix(0.9994161,-0.03416809,0,-1,0,0)"
       y="-2214.6577"
       x="-1646.5115"
       height="31.444056"
       width="44.619411"
       id="rect864"
       style="opacity:1;fill:#503b33;fill-opacity:1;fill-rule:evenodd;stroke:#ff0000;stroke-width:0;stroke-linecap:round;stroke-linejoin:round;stroke-miterlimit:4;stroke-dasharray:none;stroke-dashoffset:0;stroke-opacity:1" /><path
       id="path866"
       d="m -1901.0092,2322.5604 -12.1965,9.9097 0.7623,15.6266 8.385,7.2417 282.2342,-1.1435 0.5717,-29.7443 z"
       style="fill:#503b33;fill-opacity:1;fill-rule:evenodd;stroke:none;stroke-width:0.834383px;stroke-linecap:butt;stroke-linejoin:miter;stroke-opacity:1" /><path
       id="path868"
       d="m -1892,2323.4383 102.0502,98.0483 24.4372,-24.1254 25.3444,24.2956 97.6643,-97.7317 z"
       style="fill:#bbbbbb;fill-opacity:1;fill-rule:evenodd;stroke:none;stroke-width:0.834383px;stroke-linecap:butt;stroke-linejoin:miter;stroke-opacity:1" /><path
       style="fill:#14669d;fill-opacity:1;fill-rule:evenodd;stroke:none;stroke-width:0.834383px;stroke-linecap:butt;stroke-linejoin:miter;stroke-opacity:1"
       d="m -1842.409,2323.4179 76.8964,73.9433 25.3444,24.2956 97.6643,-97.7317 z"
       id="path870" /><path
       style="opacity:1;fill:none;fill-opacity:0.718876;fill-rule:evenodd;stroke:#000000;stroke-width:8.35468;stroke-linecap:round;stroke-linejoin:round;stroke-miterlimit:4;stroke-dasharray:none;stroke-dashoffset:0;stroke-opacity:1"
       id="path872"
       transform="matrix(0.73212467,-0.68117066,-0.73212467,-0.68117066,0,0)"
       d="m -2922.7966,-479.73997 a 33.289265,32.942497 0 0 1 7.456,-36.80038 33.289265,32.942497 0 0 1 37.4391,-6.00604 l -14.3414,29.72867 z" /><path
       id="path874"
       d="m -1842.409,2323.4179 102.2408,98.2389 97.6644,-97.7317"
       style="fill:none;fill-rule:evenodd;stroke:#000000;stroke-width:8.34383;stroke-linecap:round;stroke-linejoin:round;stroke-miterlimit:4;stroke-dasharray:none;stroke-opacity:1" /><path
       d="m 2932.7533,587.60659 a 33.289265,32.942497 0 0 1 32.4596,-31.40703 l 0.7939,32.93313 z"
       transform="matrix(-0.73212467,0.68117066,0.73212467,0.68117066,0,0)"
       id="path876"
       style="opacity:1;fill:none;fill-opacity:0.718876;fill-rule:evenodd;stroke:#000000;stroke-width:8.35468;stroke-linecap:round;stroke-linejoin:round;stroke-miterlimit:4;stroke-dasharray:none;stroke-dashoffset:0;stroke-opacity:1" /><path
       style="opacity:1;fill:none;fill-opacity:0.718876;fill-rule:evenodd;stroke:#000000;stroke-width:8.35468;stroke-linecap:round;stroke-linejoin:round;stroke-miterlimit:4;stroke-dasharray:none;stroke-dashoffset:0;stroke-opacity:1"
       id="path879"
       transform="matrix(-0.73212467,0.68117066,0.73212467,0.68117066,0,0)"
       d="m 2966.6049,554.05453 a 33.289265,32.942497 0 0 1 32.8059,-31.98399 l 0.4693,32.93923 z" /><path
       d="m 358.06996,-2816.1961 a 33.289265,32.942497 0 0 1 22.35053,-9.4883 l 1.04194,32.9263 z"
       transform="matrix(0.68117066,0.73212467,0.68117066,-0.73212467,0,0)"
       id="path881"
       style="opacity:1;fill:none;fill-opacity:0.718876;fill-rule:evenodd;stroke:#000000;stroke-width:8.35468;stroke-linecap:round;stroke-linejoin:round;stroke-miterlimit:4;stroke-dasharray:none;stroke-dashoffset:0;stroke-opacity:1" /><path
       style="fill:none;fill-rule:evenodd;stroke:#000000;stroke-width:8.34383;stroke-linecap:round;stroke-linejoin:round;stroke-miterlimit:4;stroke-dasharray:none;stroke-opacity:1"
       d="m -1892,2323.4383 102.0502,98.0483 24.4372,-24.1254"
       id="path883" /><path
       id="path885"
       d="m -1599.1464,2247.4758 -11.053,-11.4342 h -73.56 l -19.4382,-10.6719 -4.1925,-19.0571 3.4302,-13.721 18.2948,-11.8153 48.4047,-1.5246 23.6307,3.0492 10.2908,3.0491 3.4303,9.1473 z"
       style="fill:#6c4f44;fill-opacity:1;fill-rule:evenodd;stroke:none;stroke-width:0.834383px;stroke-linecap:butt;stroke-linejoin:miter;stroke-opacity:1" /><rect
       transform="scale(1,-1)"
       y="-2324.4507"
       x="-1913.6281"
       height="216.09096"
       width="292.37555"
       id="rect887"
       style="opacity:1;fill:#6c4f44;fill-opacity:1;fill-rule:evenodd;stroke:#ff0000;stroke-width:0;stroke-linecap:round;stroke-linejoin:round;stroke-miterlimit:4;stroke-dasharray:none;stroke-dashoffset:0;stroke-opacity:1" /><path
       id="path889"
       d="m -1621.0619,2269.7725 c 25.8648,0.1556 32.7778,-33.1599 -0.7623,-32.7781 l -56.0276,0.1906 c -39.2514,0.1906 -41.628,-56.9804 -0.1905,-56.5993 l 55.2653,0.9529 c 25.6568,-1.0976 23.2214,11.4153 23.6306,25.1553 v 47.0707"
       style="fill:none;fill-rule:evenodd;stroke:#000000;stroke-width:8.34383;stroke-linecap:butt;stroke-linejoin:miter;stroke-miterlimit:4;stroke-dasharray:none;stroke-opacity:1" /><path
       id="path891"
       d="m -1622.0148,2324.085 -277.4699,-0.7623 c -20.6621,-0.3558 -21.1796,31.2685 -0.7623,32.0157 l 40.258,-0.2858 m 188.5213,-1.0482 49.6435,0.1905 0.667,-116.057 m 0.1429,-62.0306 -0.2382,-70.0344"
       style="fill:none;fill-rule:evenodd;stroke:#000101;stroke-width:8.34383;stroke-linecap:round;stroke-linejoin:round;stroke-miterlimit:4;stroke-dasharray:none;stroke-opacity:1" /><path
       d="m -1676.8051,-2213.2928 a 5.7170997,5.7170997 0 0 1 5.7095,5.6887 5.7170997,5.7170997 0 0 1 -5.6526,5.7452 5.7170997,5.7170997 0 0 1 -5.7806,-5.6164 5.7170997,5.7170997 0 0 1 5.5798,-5.8159"
       transform="scale(1,-1)"
       id="path893"
       style="opacity:1;fill:#000000;fill-opacity:1;fill-rule:evenodd;stroke:#000000;stroke-width:8.34383;stroke-linecap:round;stroke-linejoin:round;stroke-miterlimit:4;stroke-dasharray:none;stroke-dashoffset:0;stroke-opacity:1" /><g
       transform="matrix(1.3461375,0,0,1.3461375,-1911.3402,2358.1083)"
       id="g913"><path
         d="m 56.361948,-177.85785 a 105.61928,108.89532 0 0 1 110.415932,1.40719 105.61928,108.89532 0 0 1 48.85394,102.10109"
         transform="matrix(1,0,0,-1,-58.241076,-257.63111)"
         id="path895"
         style="opacity:1;fill:none;fill-opacity:1;fill-rule:evenodd;stroke:#380005;stroke-width:3.75;stroke-linecap:round;stroke-linejoin:round;stroke-miterlimit:4;stroke-dasharray:none;stroke-dashoffset:0;stroke-opacity:1;filter:url(#filter1667)" /><path
         id="path897"
         d="m 64.750374,-183.97328 -0.3426,2.39816 5.82411,5.48151 v 1.37038 l -1.37037,3.42595 -1.71298,0.34259 -5.8241,4.79633 -9.59265,1.37037 -5.82411,4.11114 -2.74076,-0.3426 -3.083347,3.42595 -6.166703,13.36119 -1.027785,7.87968 6.509295,6.50929 -0.342592,3.76854 6.509292,5.48152 h 2.74076 l 1.37038,3.42594 2.56946,-1.54167 2.56945,2.22686 3.25465,-0.68519 4.45373,4.28243 3.59724,0.85649 2.56947,0.51389 2.56946,-1.54167 3.08335,-0.68519 2.91205,-0.5139 4.28243,-1.37037 2.91206,-2.56946 3.76854,0.51389 3.93983,-2.74076 2.91206,-2.56945 -4.28244,-1.19909 v -1.54167 l 8.56487,-7.70838 1.884266,-3.59724 0.51389,1.71297 0.51389,1.71297 3.42595,0.3426 3.42594,-2.39816 4.79633,-2.74076 3.93984,-4.45373 2.39816,-2.39816 2.22686,2.91205 v 3.76854 l -3.76854,3.42595 -8.90746,3.42594 -3.08335,2.56946 0.3426,4.62503 6.68059,-0.34259 1.88427,1.37037 5.13892,-3.59724 3.59724,-1.54167 2.74076,-0.1713 -2.05557,2.56946 -1.19908,2.91205 -5.82411,4.62503 -1.54167,2.22686 -4.28243,-1.37038 1.37037,-1.71297 -1.02778,-3.08335 -3.25465,-0.1713 -4.11113,2.39816 1.37038,1.88427 -2.56947,2.56946 -2.22686,0.3426 -2.398156,2.91205 -0.68519,3.08335 -1.37038,-0.34259 1.54168,-4.79633 3.597236,-5.65281 -2.05557,-1.37038 -1.541666,0.3426 -2.05557,4.11114 -0.85649,4.11113 -4.28243,3.76854 -2.05556,0.85648 -5.13892,1.02779 -3.42595,-0.68519 -3.08335,-2.74076 -2.74076,-1.54167 -3.59724,1.71297 -4.45373,1.02779 -2.22686,2.56945 2.74075,3.25466 1.88427,3.93983 3.59725,-0.34259 4.11113,-2.39817 2.05556,-1.54167 -0.17129,5.824109 3.42595,0.1713 2.91205,0.68518 3.93984,-1.71297 1.71297,-0.1713 2.91205,4.28243 3.93984,-1.88427 -0.51389,4.62503 -2.74076,0.85648 -1.37037,0.8565 2.39816,2.05556 3.93983,2.39816 h 5.824106 l 2.22686,0.85649 2.56947,-4.62503 5.48151,-3.25465 3.93984,-0.34259 1.88427,-1.71298 2.56945,-1.02777 2.56946,-0.1713"
         style="fill:none;fill-rule:evenodd;stroke:#380005;stroke-width:3.75;stroke-linecap:round;stroke-linejoin:round;stroke-miterlimit:4;stroke-dasharray:none;stroke-opacity:1;filter:url(#filter1667)" /><path
         id="path899"
         d="m 125.7322,-183.45939 -2.22686,4.62503 -2.22687,5.13892 -1.02778,3.59724 -0.85649,1.02778 -0.1713,5.99541 1.19908,3.93983 0.51389,8.05098 1.19909,-0.34259 -0.1713,-8.22227 2.39816,-3.93984 -0.34259,-5.48152 1.02778,-7.02319 c 0,0 1.02778,-3.59724 1.71297,-3.93983 0.68519,-0.3426 3.08335,-3.25465 3.08335,-3.25465 l 3.25465,0.68519 3.76854,2.05557 c 0,0 4.11114,4.11113 4.28243,4.79632 0.1713,0.68519 4.28244,5.65281 4.28244,5.65281 l -3.08335,5.48151 -2.22686,2.39817 -2.74077,-1.54168 -1.19907,2.91205 -0.85649,3.93985 -0.51389,5.31021 -1.37038,4.45373 4.96762,-7.53708 c 0,0 0,-2.74076 0.34259,-3.42595 0.3426,-0.68519 3.59725,-3.76854 3.59725,-3.76854 l 4.11113,-3.08335 3.25465,-6.85189 2.22687,-5.99541 1.88427,-2.05557 0.34259,-2.74075"
         style="fill:none;fill-rule:evenodd;stroke:#380005;stroke-width:3.75;stroke-linecap:round;stroke-linejoin:round;stroke-miterlimit:4;stroke-dasharray:none;stroke-opacity:1;filter:url(#filter1667)" /><path
         id="path901"
         d="m 133.95447,-123.33404 -2.05557,-4.11114 1.54168,-3.76854 1.19908,-3.42594 0.1713,-4.79632 1.88427,-3.93984 1.88427,2.05557 0.51389,2.91205 -0.3426,4.45373 -1.02778,3.42595 -1.54167,1.71297 -1.88427,3.59724 z"
         style="fill:none;fill-rule:evenodd;stroke:#380005;stroke-width:3.75;stroke-linecap:round;stroke-linejoin:round;stroke-miterlimit:4;stroke-dasharray:none;stroke-opacity:1;filter:url(#filter1667)" /><path
         id="path903"
         d="m 74.856914,-92.843121 2.56945,0.1713 1.54168,1.88427 -1.19908,0.51388 z"
         style="fill:none;fill-rule:evenodd;stroke:#380005;stroke-width:3.75;stroke-linecap:round;stroke-linejoin:round;stroke-miterlimit:4;stroke-dasharray:none;stroke-opacity:1;filter:url(#filter1667)" /><path
         id="path905"
         d="m 79.995834,-95.241291 2.39816,3.08335 1.02778,3.08336 0.68519,2.22686 1.19908,-4.11113 1.37038,-2.91206 c 0,0 0.51389,-1.71297 -0.1713,-1.71297 -0.68518,0 -3.25465,-0.3426 -3.25465,-0.3426 l -3.42594,-0.68518 z"
         style="fill:none;fill-rule:evenodd;stroke:#380005;stroke-width:3.75;stroke-linecap:round;stroke-linejoin:round;stroke-miterlimit:4;stroke-dasharray:none;stroke-opacity:1;filter:url(#filter1667)" /><path
         id="path907"
         d="m 91.815344,-86.162531 1.54168,2.22686 v -0.68519 z"
         style="fill:none;fill-rule:evenodd;stroke:#380005;stroke-width:3.75;stroke-linecap:round;stroke-linejoin:round;stroke-miterlimit:4;stroke-dasharray:none;stroke-opacity:1;filter:url(#filter1667)" /><path
         id="path909"
         d="m 103.97744,-79.139341 -4.967606,-1.19909 -6.8519,5.48152 -5.65281,1.54168 -2.56945,-2.39816 -9.25006,0.51389 -10.96303,4.62502 -4.11113,1.37038 -1.54168,-1.54168 0.3426,-2.56945 -1.19908,-0.3426 -2.39817,2.22687 0.1713,3.25465 2.74076,0.51389 -0.68519,2.56946"
         style="fill:none;fill-rule:evenodd;stroke:#380005;stroke-width:3.75;stroke-linecap:round;stroke-linejoin:round;stroke-miterlimit:4;stroke-dasharray:none;stroke-opacity:1;filter:url(#filter1667)" /><path
         id="path911"
         d="m 45.051184,-65.435561 -1.54168,-4.28243 -3.425937,1.54168 -4.282433,-7.02319 -3.083355,-1.19909 -0.856485,2.22687 -4.111133,0.85649 -2.912055,-2.05557 -3.59724,-1.54168 -8.736164,0.51389 -4.2824326,-1.54167 -3.425945,-1.19908 -3.76854,-5.9954 -0.34259496,-1.54168 -3.93271044,0.100341"
         style="fill:none;fill-rule:evenodd;stroke:#380005;stroke-width:3.75;stroke-linecap:round;stroke-linejoin:round;stroke-miterlimit:4;stroke-dasharray:none;stroke-opacity:1;filter:url(#filter1667)" /></g><path
       style="opacity:1;fill:#ffffff;fill-opacity:1;fill-rule:evenodd;stroke:#cbcbcb;stroke-width:0.75;stroke-linecap:round;stroke-linejoin:round;stroke-miterlimit:4;stroke-dasharray:none;stroke-dashoffset:0;stroke-opacity:1;filter:url(#filter2193)"
       id="path915"
       transform="matrix(2.7682816,0,0,-2.7682816,-2421.7212,1764.0562)"
       d="m 270.17234,-161.38177 a 0.51389182,0.51389182 0 0 1 0.51321,0.51134 0.51389182,0.51389182 0 0 1 -0.5081,0.51642 0.51389182,0.51389182 0 0 1 -0.5196,-0.50484 0.51389182,0.51389182 0 0 1 0.50155,-0.52277" /><g
       id="g935"
       transform="matrix(1.3461375,0,0,1.3461375,-1989.7407,2011.3014)"
       style="stroke:#ffffff;stroke-opacity:1"><path
         style="opacity:1;fill:none;fill-opacity:1;fill-rule:evenodd;stroke:#ffffff;stroke-width:3.75;stroke-linecap:round;stroke-linejoin:round;stroke-miterlimit:4;stroke-dasharray:none;stroke-dashoffset:0;stroke-opacity:1"
         id="path917"
         transform="scale(1,-1)"
         d="m 56.361948,-177.85785 a 105.61928,108.89532 0 0 1 110.415932,1.40719 105.61928,108.89532 0 0 1 48.85394,102.10109" /><path
         style="fill:none;fill-rule:evenodd;stroke:#ffffff;stroke-width:3.75;stroke-linecap:round;stroke-linejoin:round;stroke-miterlimit:4;stroke-dasharray:none;stroke-opacity:1"
         d="m 122.99145,73.657832 -0.3426,2.398163 5.82411,5.48151 v 1.370377 l -1.37037,3.425948 -1.71298,0.342592 -5.8241,4.796325 -9.59265,1.370378 -5.82411,4.11114 -2.74076,-0.3426 -3.083347,3.425945 -6.166703,13.36119 -1.027785,7.87968 6.509295,6.50929 -0.342592,3.76854 6.509292,5.48152 h 2.74076 l 1.37038,3.42594 2.56946,-1.54167 2.56945,2.22686 3.25465,-0.68519 4.45373,4.28243 3.59724,0.85649 2.56947,0.51389 2.56946,-1.54167 3.08335,-0.68519 2.91205,-0.5139 4.28243,-1.37037 2.91206,-2.56946 3.76854,0.51389 3.93983,-2.74076 2.91206,-2.56945 -4.28244,-1.19909 v -1.54167 l 8.56487,-7.70838 1.88427,-3.59724 0.51389,1.71297 0.51389,1.71297 3.42595,0.3426 3.42594,-2.39816 4.79633,-2.74076 3.93984,-4.45373 2.39816,-2.39816 2.22686,2.91205 v 3.76854 l -3.76854,3.42595 -8.90746,3.42594 -3.08335,2.56946 0.3426,4.62503 6.68059,-0.34259 1.88427,1.37037 5.13892,-3.59724 3.59724,-1.54167 2.74076,-0.1713 -2.05557,2.56946 -1.19908,2.91205 -5.82411,4.62503 -1.54167,2.22686 -4.28243,-1.37038 1.37037,-1.71297 -1.02778,-3.08335 -3.25465,-0.1713 -4.11113,2.39816 1.37038,1.88427 -2.56947,2.56946 -2.22686,0.3426 -2.39816,2.91205 -0.68519,3.08335 -1.37038,-0.34259 1.54168,-4.79633 3.59724,-5.65281 -2.05557,-1.37038 -1.54167,0.3426 -2.05557,4.11114 -0.85649,4.11113 -4.28243,3.76854 -2.05556,0.85648 -5.13892,1.02779 -3.42595,-0.68519 -3.08335,-2.74076 -2.74076,-1.54167 -3.59724,1.71297 -4.45373,1.02779 -2.22686,2.56945 2.74075,3.25466 1.88427,3.93983 3.59725,-0.34259 4.11113,-2.39817 2.05556,-1.54167 -0.17129,5.82411 3.42595,0.1713 2.91205,0.68518 3.93984,-1.71297 1.71297,-0.1713 2.91205,4.28243 3.93984,-1.88427 -0.51389,4.62503 -2.74076,0.85648 -1.37037,0.8565 2.39816,2.05556 3.93983,2.39816 h 5.82411 l 2.22686,0.85649 2.56947,-4.62503 5.48151,-3.25465 3.93984,-0.34259 1.88427,-1.71298 2.56945,-1.02777 2.56946,-0.1713"
         id="path919" /><path
         style="fill:none;fill-rule:evenodd;stroke:#ffffff;stroke-width:3.75;stroke-linecap:round;stroke-linejoin:round;stroke-miterlimit:4;stroke-dasharray:none;stroke-opacity:1"
         d="m 183.97328,74.171724 -2.22686,4.625026 -2.22687,5.138917 -1.02778,3.597248 -0.85649,1.027777 -0.1713,5.995411 1.19908,3.939832 0.51389,8.050975 1.19909,-0.34259 -0.1713,-8.22227 2.39816,-3.93984 -0.34259,-5.481518 1.02778,-7.023187 c 0,0 1.02778,-3.59724 1.71297,-3.939833 0.68519,-0.3426 3.08335,-3.254648 3.08335,-3.254648 l 3.25465,0.685186 3.76854,2.05557 c 0,0 4.11114,4.111132 4.28243,4.796325 0.1713,0.685185 4.28244,5.65281 4.28244,5.65281 l -3.08335,5.48151 -2.22686,2.398163 -2.74077,-1.541678 -1.19907,2.912055 -0.85649,3.939845 -0.51389,5.31021 -1.37038,4.45373 4.96762,-7.53708 c 0,0 0,-2.74076 0.34259,-3.42595 0.3426,-0.685185 3.59725,-3.76854 3.59725,-3.76854 l 4.11113,-3.083348 3.25465,-6.851895 2.22687,-5.995402 1.88427,-2.05557 0.34259,-2.740755"
         id="path921" /><path
         style="fill:none;fill-rule:evenodd;stroke:#ffffff;stroke-width:3.75;stroke-linecap:round;stroke-linejoin:round;stroke-miterlimit:4;stroke-dasharray:none;stroke-opacity:1"
         d="m 192.19555,134.29707 -2.05557,-4.11114 1.54168,-3.76854 1.19908,-3.42594 0.1713,-4.79632 1.88427,-3.93984 1.88427,2.05557 0.51389,2.91205 -0.3426,4.45373 -1.02778,3.42595 -1.54167,1.71297 -1.88427,3.59724 z"
         id="path923" /><path
         style="fill:none;fill-rule:evenodd;stroke:#ffffff;stroke-width:3.75;stroke-linecap:round;stroke-linejoin:round;stroke-miterlimit:4;stroke-dasharray:none;stroke-opacity:1"
         d="m 133.09799,164.78799 2.56945,0.1713 1.54168,1.88427 -1.19908,0.51388 z"
         id="path925" /><path
         style="fill:none;fill-rule:evenodd;stroke:#ffffff;stroke-width:3.75;stroke-linecap:round;stroke-linejoin:round;stroke-miterlimit:4;stroke-dasharray:none;stroke-opacity:1"
         d="m 138.23691,162.38982 2.39816,3.08335 1.02778,3.08336 0.68519,2.22686 1.19908,-4.11113 1.37038,-2.91206 c 0,0 0.51389,-1.71297 -0.1713,-1.71297 -0.68518,0 -3.25465,-0.3426 -3.25465,-0.3426 l -3.42594,-0.68518 z"
         id="path927" /><path
         style="fill:none;fill-rule:evenodd;stroke:#ffffff;stroke-width:3.75;stroke-linecap:round;stroke-linejoin:round;stroke-miterlimit:4;stroke-dasharray:none;stroke-opacity:1"
         d="m 150.05642,171.46858 1.54168,2.22686 v -0.68519 z"
         id="path929" /><path
         style="fill:none;fill-rule:evenodd;stroke:#ffffff;stroke-width:3.75;stroke-linecap:round;stroke-linejoin:round;stroke-miterlimit:4;stroke-dasharray:none;stroke-opacity:1"
         d="m 162.21852,178.49177 -4.96761,-1.19909 -6.8519,5.48152 -5.65281,1.54168 -2.56945,-2.39816 -9.25006,0.51389 -10.96303,4.62502 -4.11113,1.37038 -1.54168,-1.54168 0.3426,-2.56945 -1.19908,-0.3426 -2.39817,2.22687 0.1713,3.25465 2.74076,0.51389 -0.68519,2.56946"
         id="path931" /><path
         style="fill:none;fill-rule:evenodd;stroke:#ffffff;stroke-width:3.75;stroke-linecap:round;stroke-linejoin:round;stroke-miterlimit:4;stroke-dasharray:none;stroke-opacity:1"
         d="m 103.29226,192.19555 -1.54168,-4.28243 -3.425937,1.54168 -4.282433,-7.02319 -3.083355,-1.19909 -0.856485,2.22687 -4.111133,0.85649 -2.912055,-2.05557 -3.59724,-1.54168 -8.736164,0.51389 -4.282433,-1.54167 -3.425945,-1.19908 -3.76854,-5.9954 -0.342595,-1.54168 -3.932706,0.10034"
         id="path933" /></g><path
       id="path937"
       d="m -1621.2525,2106.0729 -272.8962,-0.7623 c -9.9703,0.3948 -20.4171,3.3674 -20.7721,19.8192 l -0.5718,215.7252"
       style="fill:none;fill-rule:evenodd;stroke:#000101;stroke-width:8.34383;stroke-linecap:round;stroke-linejoin:miter;stroke-miterlimit:4;stroke-dasharray:none;stroke-opacity:1" /></g><g
     id="g40"
     transform="matrix(0.58511063,0,0,-0.58511063,2309.1882,-34.127022)"><rect
       ry="11.148339"
       transform="matrix(0.9994161,-0.03416809,0,-1,0,0)"
       y="420.38812"
       x="-3592.0591"
       height="31.444056"
       width="44.619411"
       id="rect6"
       style="fill:#503b33;fill-opacity:1;fill-rule:evenodd;stroke:#ff0000;stroke-width:0;stroke-linecap:round;stroke-linejoin:round;stroke-miterlimit:4;stroke-dasharray:none;stroke-dashoffset:0;stroke-opacity:1" /><path
       id="path6"
       d="m -3845.4209,-246.0098 -12.1965,9.9097 0.7623,15.6266 8.385,7.2417 282.2342,-1.1435 0.5717,-29.7443 z"
       style="fill:#503b33;fill-opacity:1;fill-rule:evenodd;stroke:none;stroke-width:0.834383px;stroke-linecap:butt;stroke-linejoin:miter;stroke-opacity:1" /><path
       id="path7"
       d="m -3836.4117,-245.1319 102.0502,98.0483 24.4372,-24.1254 25.3444,24.2956 97.6643,-97.7317 z"
       style="fill:#bbbbbb;fill-opacity:1;fill-rule:evenodd;stroke:none;stroke-width:0.834383px;stroke-linecap:butt;stroke-linejoin:miter;stroke-opacity:1" /><path
       style="fill:#14669d;fill-opacity:1;fill-rule:evenodd;stroke:none;stroke-width:0.834383px;stroke-linecap:butt;stroke-linejoin:miter;stroke-opacity:1"
       d="m -3786.8207,-245.1523 76.8964,73.9433 25.3444,24.2956 97.6643,-97.7317 z"
       id="path8" /><path
       style="fill:none;fill-opacity:0.718876;fill-rule:evenodd;stroke:#000000;stroke-width:8.35468;stroke-linecap:round;stroke-linejoin:round;stroke-miterlimit:4;stroke-dasharray:none;stroke-dashoffset:0;stroke-opacity:1"
       id="path9"
       transform="matrix(0.73212467,-0.68117066,-0.73212467,-0.68117066,0,0)"
       d="m -2365.3117,2733.5926 a 33.289265,32.942497 0 0 1 7.456,-36.8003 33.289265,32.942497 0 0 1 37.4391,-6.0061 l -14.3415,29.7287 z" /><path
       id="path10"
       d="m -3786.8207,-245.1523 102.2408,98.2389 97.6644,-97.7317"
       style="fill:none;fill-rule:evenodd;stroke:#000000;stroke-width:8.34383;stroke-linecap:round;stroke-linejoin:round;stroke-miterlimit:4;stroke-dasharray:none;stroke-opacity:1" /><path
       d="m 2375.2684,-2625.7261 a 33.289265,32.942497 0 0 1 32.4597,-31.407 l 0.7939,32.9331 z"
       transform="matrix(-0.73212467,0.68117066,0.73212467,0.68117066,0,0)"
       id="path11"
       style="fill:none;fill-opacity:0.718876;fill-rule:evenodd;stroke:#000000;stroke-width:8.35468;stroke-linecap:round;stroke-linejoin:round;stroke-miterlimit:4;stroke-dasharray:none;stroke-dashoffset:0;stroke-opacity:1" /><path
       style="fill:none;fill-opacity:0.718876;fill-rule:evenodd;stroke:#000000;stroke-width:8.35468;stroke-linecap:round;stroke-linejoin:round;stroke-miterlimit:4;stroke-dasharray:none;stroke-dashoffset:0;stroke-opacity:1"
       id="path12"
       transform="matrix(-0.73212467,0.68117066,0.73212467,0.68117066,0,0)"
       d="m 2409.12,-2659.278 a 33.289265,32.942497 0 0 1 32.8059,-31.984 l 0.4694,32.9392 z" /><path
       d="m -2823.3766,-2489.2644 a 33.289265,32.942497 0 0 1 22.3505,-9.4884 l 1.042,32.9264 z"
       transform="matrix(0.68117066,0.73212467,0.68117066,-0.73212467,0,0)"
       id="path13"
       style="fill:none;fill-opacity:0.718876;fill-rule:evenodd;stroke:#000000;stroke-width:8.35468;stroke-linecap:round;stroke-linejoin:round;stroke-miterlimit:4;stroke-dasharray:none;stroke-dashoffset:0;stroke-opacity:1" /><path
       style="fill:none;fill-rule:evenodd;stroke:#000000;stroke-width:8.34383;stroke-linecap:round;stroke-linejoin:round;stroke-miterlimit:4;stroke-dasharray:none;stroke-opacity:1"
       d="m -3836.4117,-245.1319 102.0502,98.0483 24.4372,-24.1254"
       id="path14" /><path
       id="path15"
       d="m -3543.5581,-321.0944 -11.053,-11.4342 h -73.56 l -19.4382,-10.6719 -4.1925,-19.0571 3.4302,-13.721 18.2948,-11.8153 48.4047,-1.5246 23.6307,3.0492 10.2908,3.0491 3.4303,9.1473 z"
       style="fill:#6c4f44;fill-opacity:1;fill-rule:evenodd;stroke:none;stroke-width:0.834383px;stroke-linecap:butt;stroke-linejoin:miter;stroke-opacity:1" /><rect
       transform="scale(1,-1)"
       y="244.11952"
       x="-3858.0398"
       height="216.09096"
       width="292.37555"
       id="rect15"
       style="fill:#6c4f44;fill-opacity:1;fill-rule:evenodd;stroke:#ff0000;stroke-width:0;stroke-linecap:round;stroke-linejoin:round;stroke-miterlimit:4;stroke-dasharray:none;stroke-dashoffset:0;stroke-opacity:1" /><path
       id="path16"
       d="m -3565.4736,-298.7977 c 25.8648,0.1556 32.7778,-33.1599 -0.7623,-32.7781 l -56.0276,0.1906 c -39.2514,0.1906 -41.628,-56.9804 -0.1905,-56.5993 l 55.2653,0.9529 c 25.6568,-1.0976 23.2214,11.4153 23.6306,25.1553 v 47.0707"
       style="fill:none;fill-rule:evenodd;stroke:#000000;stroke-width:8.34383;stroke-linecap:butt;stroke-linejoin:miter;stroke-miterlimit:4;stroke-dasharray:none;stroke-opacity:1" /><path
       id="path17"
       d="m -3566.4265,-244.4852 -277.4699,-0.7623 c -20.6621,-0.3558 -21.1796,31.2685 -0.7623,32.0157 l 40.258,-0.2858 m 188.5213,-1.0482 49.6435,0.1905 0.667,-116.057 m 0.1429,-62.0306 -0.2382,-70.0344"
       style="fill:none;fill-rule:evenodd;stroke:#000101;stroke-width:8.34383;stroke-linecap:round;stroke-linejoin:round;stroke-miterlimit:4;stroke-dasharray:none;stroke-opacity:1" /><path
       d="m -3621.2168,355.27741 a 5.7170997,5.7170997 0 0 1 5.7095,5.68866 5.7170997,5.7170997 0 0 1 -5.6526,5.74517 5.7170997,5.7170997 0 0 1 -5.7807,-5.61632 5.7170997,5.7170997 0 0 1 5.5798,-5.81589"
       transform="scale(1,-1)"
       id="path19"
       style="fill:#000000;fill-opacity:1;fill-rule:evenodd;stroke:#000000;stroke-width:8.34383;stroke-linecap:round;stroke-linejoin:round;stroke-miterlimit:4;stroke-dasharray:none;stroke-dashoffset:0;stroke-opacity:1" /><path
       style="fill:#ffffff;fill-opacity:1;fill-rule:evenodd;stroke:#cbcbcb;stroke-width:0.75;stroke-linecap:round;stroke-linejoin:round;stroke-miterlimit:4;stroke-dasharray:none;stroke-dashoffset:0;stroke-opacity:1;filter:url(#filter2193)"
       id="path30"
       transform="matrix(2.7682816,0,0,-2.7682816,-4366.1329,-804.514)"
       d="m 270.17234,-161.38177 a 0.51389182,0.51389182 0 0 1 0.51321,0.51134 0.51389182,0.51389182 0 0 1 -0.5081,0.51642 0.51389182,0.51389182 0 0 1 -0.5196,-0.50484 0.51389182,0.51389182 0 0 1 0.50155,-0.52277" /><g
       id="g39"
       transform="matrix(1.3461375,0,0,1.3461375,-3934.1524,-557.2688)"
       style="stroke:#ffffff;stroke-opacity:1"><path
         style="opacity:1;fill:none;fill-opacity:1;fill-rule:evenodd;stroke:#ffffff;stroke-width:3.75;stroke-linecap:round;stroke-linejoin:round;stroke-miterlimit:4;stroke-dasharray:none;stroke-dashoffset:0;stroke-opacity:1"
         id="path31"
         transform="scale(1,-1)"
         d="m 56.361948,-177.85785 a 105.61928,108.89532 0 0 1 110.415932,1.40719 105.61928,108.89532 0 0 1 48.85394,102.10109" /><path
         style="fill:none;fill-rule:evenodd;stroke:#ffffff;stroke-width:3.75;stroke-linecap:round;stroke-linejoin:round;stroke-miterlimit:4;stroke-dasharray:none;stroke-opacity:1"
         d="m 122.99145,73.657832 -0.3426,2.398163 5.82411,5.48151 v 1.370377 l -1.37037,3.425948 -1.71298,0.342592 -5.8241,4.796325 -9.59265,1.370378 -5.82411,4.11114 -2.74076,-0.3426 -3.083347,3.425945 -6.166703,13.36119 -1.027785,7.87968 6.509295,6.50929 -0.342592,3.76854 6.509292,5.48152 h 2.74076 l 1.37038,3.42594 2.56946,-1.54167 2.56945,2.22686 3.25465,-0.68519 4.45373,4.28243 3.59724,0.85649 2.56947,0.51389 2.56946,-1.54167 3.08335,-0.68519 2.91205,-0.5139 4.28243,-1.37037 2.91206,-2.56946 3.76854,0.51389 3.93983,-2.74076 2.91206,-2.56945 -4.28244,-1.19909 v -1.54167 l 8.56487,-7.70838 1.88427,-3.59724 0.51389,1.71297 0.51389,1.71297 3.42595,0.3426 3.42594,-2.39816 4.79633,-2.74076 3.93984,-4.45373 2.39816,-2.39816 2.22686,2.91205 v 3.76854 l -3.76854,3.42595 -8.90746,3.42594 -3.08335,2.56946 0.3426,4.62503 6.68059,-0.34259 1.88427,1.37037 5.13892,-3.59724 3.59724,-1.54167 2.74076,-0.1713 -2.05557,2.56946 -1.19908,2.91205 -5.82411,4.62503 -1.54167,2.22686 -4.28243,-1.37038 1.37037,-1.71297 -1.02778,-3.08335 -3.25465,-0.1713 -4.11113,2.39816 1.37038,1.88427 -2.56947,2.56946 -2.22686,0.3426 -2.39816,2.91205 -0.68519,3.08335 -1.37038,-0.34259 1.54168,-4.79633 3.59724,-5.65281 -2.05557,-1.37038 -1.54167,0.3426 -2.05557,4.11114 -0.85649,4.11113 -4.28243,3.76854 -2.05556,0.85648 -5.13892,1.02779 -3.42595,-0.68519 -3.08335,-2.74076 -2.74076,-1.54167 -3.59724,1.71297 -4.45373,1.02779 -2.22686,2.56945 2.74075,3.25466 1.88427,3.93983 3.59725,-0.34259 4.11113,-2.39817 2.05556,-1.54167 -0.17129,5.82411 3.42595,0.1713 2.91205,0.68518 3.93984,-1.71297 1.71297,-0.1713 2.91205,4.28243 3.93984,-1.88427 -0.51389,4.62503 -2.74076,0.85648 -1.37037,0.8565 2.39816,2.05556 3.93983,2.39816 h 5.82411 l 2.22686,0.85649 2.56947,-4.62503 5.48151,-3.25465 3.93984,-0.34259 1.88427,-1.71298 2.56945,-1.02777 2.56946,-0.1713"
         id="path32" /><path
         style="fill:none;fill-rule:evenodd;stroke:#ffffff;stroke-width:3.75;stroke-linecap:round;stroke-linejoin:round;stroke-miterlimit:4;stroke-dasharray:none;stroke-opacity:1"
         d="m 183.97328,74.171724 -2.22686,4.625026 -2.22687,5.138917 -1.02778,3.597248 -0.85649,1.027777 -0.1713,5.995411 1.19908,3.939832 0.51389,8.050975 1.19909,-0.34259 -0.1713,-8.22227 2.39816,-3.93984 -0.34259,-5.481518 1.02778,-7.023187 c 0,0 1.02778,-3.59724 1.71297,-3.939833 0.68519,-0.3426 3.08335,-3.254648 3.08335,-3.254648 l 3.25465,0.685186 3.76854,2.05557 c 0,0 4.11114,4.111132 4.28243,4.796325 0.1713,0.685185 4.28244,5.65281 4.28244,5.65281 l -3.08335,5.48151 -2.22686,2.398163 -2.74077,-1.541678 -1.19907,2.912055 -0.85649,3.939845 -0.51389,5.31021 -1.37038,4.45373 4.96762,-7.53708 c 0,0 0,-2.74076 0.34259,-3.42595 0.3426,-0.685185 3.59725,-3.76854 3.59725,-3.76854 l 4.11113,-3.083348 3.25465,-6.851895 2.22687,-5.995402 1.88427,-2.05557 0.34259,-2.740755"
         id="path33" /><path
         style="fill:none;fill-rule:evenodd;stroke:#ffffff;stroke-width:3.75;stroke-linecap:round;stroke-linejoin:round;stroke-miterlimit:4;stroke-dasharray:none;stroke-opacity:1"
         d="m 192.19555,134.29707 -2.05557,-4.11114 1.54168,-3.76854 1.19908,-3.42594 0.1713,-4.79632 1.88427,-3.93984 1.88427,2.05557 0.51389,2.91205 -0.3426,4.45373 -1.02778,3.42595 -1.54167,1.71297 -1.88427,3.59724 z"
         id="path34" /><path
         style="fill:none;fill-rule:evenodd;stroke:#ffffff;stroke-width:3.75;stroke-linecap:round;stroke-linejoin:round;stroke-miterlimit:4;stroke-dasharray:none;stroke-opacity:1"
         d="m 133.09799,164.78799 2.56945,0.1713 1.54168,1.88427 -1.19908,0.51388 z"
         id="path35" /><path
         style="fill:none;fill-rule:evenodd;stroke:#ffffff;stroke-width:3.75;stroke-linecap:round;stroke-linejoin:round;stroke-miterlimit:4;stroke-dasharray:none;stroke-opacity:1"
         d="m 138.23691,162.38982 2.39816,3.08335 1.02778,3.08336 0.68519,2.22686 1.19908,-4.11113 1.37038,-2.91206 c 0,0 0.51389,-1.71297 -0.1713,-1.71297 -0.68518,0 -3.25465,-0.3426 -3.25465,-0.3426 l -3.42594,-0.68518 z"
         id="path36" /><path
         style="fill:none;fill-rule:evenodd;stroke:#ffffff;stroke-width:3.75;stroke-linecap:round;stroke-linejoin:round;stroke-miterlimit:4;stroke-dasharray:none;stroke-opacity:1"
         d="m 150.05642,171.46858 1.54168,2.22686 v -0.68519 z"
         id="path37" /><path
         style="fill:none;fill-rule:evenodd;stroke:#ffffff;stroke-width:3.75;stroke-linecap:round;stroke-linejoin:round;stroke-miterlimit:4;stroke-dasharray:none;stroke-opacity:1"
         d="m 162.21852,178.49177 -4.96761,-1.19909 -6.8519,5.48152 -5.65281,1.54168 -2.56945,-2.39816 -9.25006,0.51389 -10.96303,4.62502 -4.11113,1.37038 -1.54168,-1.54168 0.3426,-2.56945 -1.19908,-0.3426 -2.39817,2.22687 0.1713,3.25465 2.74076,0.51389 -0.68519,2.56946"
         id="path38" /><path
         style="fill:none;fill-rule:evenodd;stroke:#ffffff;stroke-width:3.75;stroke-linecap:round;stroke-linejoin:round;stroke-miterlimit:4;stroke-dasharray:none;stroke-opacity:1"
         d="m 103.29226,192.19555 -1.54168,-4.28243 -3.425937,1.54168 -4.282433,-7.02319 -3.083355,-1.19909 -0.856485,2.22687 -4.111133,0.85649 -2.912055,-2.05557 -3.59724,-1.54168 -8.736164,0.51389 -4.282433,-1.54167 -3.425945,-1.19908 -3.76854,-5.9954 -0.342595,-1.54168 -3.932706,0.10034"
         id="path39" /></g><path
       id="path40"
       d="m -3565.6642,-462.4973 -272.8962,-0.7623 c -9.9703,0.3948 -20.4171,3.3674 -20.7721,19.8192 l -0.5718,215.7252"
       style="fill:none;fill-rule:evenodd;stroke:#000101;stroke-width:8.34383;stroke-linecap:round;stroke-linejoin:miter;stroke-miterlimit:4;stroke-dasharray:none;stroke-opacity:1" /></g></svg>
